<?xml version="1.0" encoding="UTF-8" standalone="no"?>
<!DOCTYPE svg PUBLIC "-//W3C//DTD SVG 1.1//EN" "http://www.w3.org/Graphics/SVG/1.1/DTD/svg11.dtd">
<svg width="100%" height="100%" viewBox="0 0 1492 1772" version="1.1" xmlns="http://www.w3.org/2000/svg" xmlns:xlink="http://www.w3.org/1999/xlink" xml:space="preserve" xmlns:serif="http://www.serif.com/" style="fill-rule:evenodd;clip-rule:evenodd;stroke-linejoin:round;stroke-miterlimit:2;">
    <g transform="matrix(-0.342953,0.271036,-0.271036,-0.342953,2626.4,781.394)">
        <g>
            <path id="p16lr5qWWX" d="M4756,1645C5136,1940 5112.16,2020.35 5081.16,1996.35C5066.16,1984.35 4956,2477 4945,2467C4934,2457 4894,2423 4855,2392C4817,2361 4781,2330 4775,2324C4749,2296 4329,1968 4240,1908C4226,1898 4198,1878 4177,1863C4065,1780 3947,1700 3937,1700C3930,1700 3910,1715 3893,1733C3828,1802 3697,1808 3638,1743C3629,1733 3610,1713 3596,1698C3577,1676 3562,1670 3530,1670C3508,1670 3490,1672 3490,1675C3490,1677 3499,1694 3510,1712C3555,1786 3526,1864 3411,1978C3320,2069 3243,2112 3172,2115C3139,2117 3123,2123 3115,2135C3086,2185 3046,2219 2990,2240C2935,2261 2930,2265 2930,2292C2930,2334 2906,2381 2862,2422C2823,2458 2707,2534 2665,2550C2632,2562 2634,2573 2671,2613C2688,2630 2714,2660 2727,2677C2748,2704 2759,2710 2792,2710C2848,2710 2890,2731 2988,2807C3036,2845 3086,2883 3100,2892C3179,2946 3222,2979 3255,3008C3291,3041 3294,3042 3388,3044C3509,3048 3565,3067 3795,3182C4053,3312 4178,3421 4258,3584C4292,3655 2238,3602 2146,3526C1983,3393 1856,3249 1777,3110C1751,3063 1693,2982 1649,2930C1547,2809 1527,2770 1490,2616C1435,2385 1453,2330 1616,2219C1690,2170 1715,2135 1753,2029C1813,1864 1831,1845 2010,1757C2062,1731 2123,1699 2145,1686C2167,1673 2235,1634 2295,1600C2356,1565 2412,1531 2422,1523C2432,1514 2441,1485 2445,1448C2449,1413 2463,1368 2479,1340C2513,1278 2677,1127 2730,1110C2767,1098 2772,1099 2839,1134C2877,1154 2912,1170 2917,1170C2929,1170 3030,1045 3030,1030C3030,1025 3014,1000 2995,975C2942,905 2938,838 2980,746C3045,601 3214,509 3332,554C3366,567 3382,569 3404,561C3419,555 3462,550 3501,550C3627,550 3689,588 3881,783C3929,831 3972,870 3978,870C3983,870 4008,859 4031,845C4109,801 4238,818 4297,882C4358,947 4355,1059 4289,1194C4272,1227 4261,1259 4264,1266C4267,1273 4322,1317 4387,1364C4489,1439 4549,1484 4756,1645ZM4068,1654C4520.7,2078.74 5258.47,2359.34 4861,1871C4571,1633 4177,1336 4160,1342C4147,1347 3980,1570 3980,1583C3980,1590 4019,1622 4068,1654ZM1930,3146C2004,3264 4164,3600 4082,3509C4014,3434 3869,3338 3710,3262C3542,3181 3390,3131 3390,3157C3390,3161 3408,3201 3430,3244C3501,3386 3424,3530 3424,3460C3423,3285 3392,3247 3050,2990C2869,2854 2831,2830 2810,2835C2770,2845 2767,2854 2780,2924C2794,2998 2798,3105 2788,3115C2784,3119 2774,3120 2765,3117C2754,3112 2750,3096 2750,3056C2750,2960 2673,2757 2610,2690C2581,2659 2578,2658 2511,2661C2473,2663 2438,2661 2434,2657C2430,2653 2445,2642 2468,2632C2506,2617 2527,2594 2516,2583C2514,2580 2479,2570 2440,2560C2401,2550 2366,2539 2363,2537C2361,2534 2385,2527 2417,2521C2449,2515 2501,2505 2532,2499C2602,2485 2746,2403 2795,2349C2829,2311 2836,2287 2824,2244C2813,2202 2688,2152 2552,2135C2479,2125 2489,2106 2566,2108C2646,2111 2718,2127 2788,2155C2845,2178 2849,2178 2906,2164C3008,2138 3024,2125 3035,2048C3042,2004 3041,2002 2986,1942C2883,1832 2583,1600 2542,1600C2535,1600 2453,1645 2359,1700C2266,1756 2138,1827 2074,1860C1916,1940 1914,1942 1864,2082C1824,2196 1796,2235 1717,2294C1570,2404 1563,2424 1606,2605C1636,2732 1661,2779 1756,2890C1799,2940 1831,2987 1930,3146ZM3264,1981C3318,1943 3419,1834 3426,1803C3434,1771 3411,1743 3232,1569C3037,1380 2834,1230 2773,1230C2743,1230 2613,1348 2583,1402C2557,1449 2551,1550 2573,1568C2579,1574 2617,1595 2655,1615C2790,1687 2958,1822 3051,1934C3079,1968 3114,2001 3128,2008C3166,2025 3212,2016 3264,1981ZM3843,1648C3915,1570 4032,1419 4106,1309C4257,1085 4280,969 4179,938C4108,917 4050,966 4050,1045C4050,1059 4044,1070 4038,1070C4031,1070 3939,987 3834,886C3729,785 3627,694 3609,684C3560,659 3468,661 3402,690L3349,713L3281,647L3234,665C3171,689 3121,735 3094,795C3064,859 3064,891 3095,929C3141,983 3153,980 3233,897C3363,763 3441,748 3578,831C3711,911 4040,1164 4040,1187C4040,1206 3904,1391 3753,1578C3707,1635 3700,1663 3728,1679C3766,1701 3802,1692 3843,1648ZM3540,1574C3623,1578 3690,1577 3690,1572C3690,1568 3698,1555 3708,1544C3748,1502 3840,1376 3840,1364C3840,1353 3806,1273 3763,1183C3744,1143 3728,1141 3709,1177C3693,1207 3695,1234 3718,1272C3733,1298 3733,1301 3713,1322C3701,1335 3688,1357 3685,1373C3671,1428 3590,1416 3443,1339C3359,1294 3334,1291 3296,1321C3266,1344 3256,1342 3266,1315C3276,1290 3346,1261 3384,1267C3401,1269 3442,1283 3475,1297C3617,1357 3620,1357 3636,1336C3658,1306 3654,1277 3630,1283C3596,1292 3541,1271 3518,1240C3506,1223 3487,1210 3476,1210C3446,1210 3435,1200 3414,1155C3399,1124 3388,1114 3362,1109C3319,1100 3292,1075 3268,1023C3258,999 3245,980 3241,980C3234,980 3017,1243 2997,1276C2992,1285 3022,1314 3087,1367C3141,1410 3220,1480 3264,1522C3341,1598 3343,1599 3367,1583C3387,1569 3413,1568 3540,1574ZM3900,1296C3900,1288 3906,1275 3913,1268C3920,1261 3936,1240 3949,1221L3973,1187L3930,1151C3906,1131 3850,1087 3806,1052L3725,989L3695,1027C3679,1047 3641,1090 3613,1122C3543,1198 3544,1230 3616,1230C3634,1230 3641,1223 3646,1203C3649,1187 3657,1164 3663,1151C3678,1121 3745,1076 3763,1083C3771,1086 3798,1138 3825,1199C3852,1263 3878,1310 3886,1310C3894,1310 3900,1304 3900,1296ZM3541,1138C3565,1116 3670,969 3670,958C3670,950 3560,875 3513,851C3425,807 3337,835 3310,915C3282,1001 3370,1108 3412,1040C3433,1007 3447,1017 3452,1070C3457,1119 3481,1160 3505,1160C3512,1160 3528,1150 3541,1138Z" style="fill:rgb(2,1,2);fill-rule:nonzero;"/>
            <path id="pj3i8B1lk" d="M1940,2758C1940,2720 1997,2633 2047,2595C2101,2554 2187,2526 2230,2535C2269,2544 2268,2555 2228,2558C2185,2561 2111,2596 2077,2628C2061,2643 2033,2683 2013,2718C1989,2760 1972,2780 1959,2780C1946,2780 1940,2773 1940,2758Z" style="fill:rgb(2,1,2);fill-rule:nonzero;"/>
            <path id="p13BB8iPfY" d="M1906,2522C1897,2507 1928,2480 1980,2456C2012,2442 2047,2436 2100,2436C2166,2435 2182,2439 2230,2466C2260,2483 2286,2505 2288,2514C2291,2530 2289,2530 2253,2514C2157,2473 2106,2470 2022,2501C1949,2528 1914,2534 1906,2522Z" style="fill:rgb(2,1,2);fill-rule:nonzero;"/>
            <g transform="matrix(-2.96428,3.75083,1.35422,1.07024,4817.9,-5564.49)">
                <path d="M1092.33,2406.98L1884.04,2406.98C1851.13,2872.29 1683.91,3212.6 1488.19,3212.6C1292.46,3212.6 1125.25,2872.29 1092.33,2406.98Z" style="fill:rgb(255,209,0);"/>
                <path d="M1092.33,2406.98L1884.04,2406.98C1851.13,2872.29 1683.91,3212.6 1488.19,3212.6C1292.46,3212.6 1125.25,2872.29 1092.33,2406.98Z" style="fill:white;"/>
                <path d="M1064.94,2421.84C1100.23,2920.72 1278.35,3289.91 1488.19,3289.91C1698.03,3289.91 1876.15,2920.72 1911.44,2421.84C1913.04,2399.16 1910.9,2375.69 1905.6,2357.84C1900.29,2340 1892.39,2329.66 1884.04,2329.66L1092.33,2329.66C1083.99,2329.66 1076.08,2340 1070.78,2357.84C1065.48,2375.69 1063.34,2399.16 1064.94,2421.84ZM1092.33,2406.98L1884.04,2406.98C1851.13,2872.29 1683.91,3212.6 1488.19,3212.6C1292.46,3212.6 1125.25,2872.29 1092.33,2406.98Z"/>
                <g>
                    <clipPath id="_clip1">
                        <path d="M1092.33,2406.98L1884.04,2406.98C1851.13,2872.29 1683.91,3212.6 1488.19,3212.6C1292.46,3212.6 1125.25,2872.29 1092.33,2406.98Z"/>
                    </clipPath>
                    <g clip-path="url(#_clip1)">
                        <g transform="matrix(-0.196855,-1.20802,-0.147525,0.184422,1735.88,2931.4)">
                            <rect x="-237.938" y="376.019" width="998.087" height="382.543" style="fill:rgb(255,158,0);"/>
                        </g>
                        <g transform="matrix(-0.196855,-1.20802,-0.167326,0.209176,1687.14,2988.24)">
                            <rect x="-237.938" y="376.019" width="998.087" height="382.543" style="fill:rgb(255,93,0);"/>
                        </g>
                    </g>
                </g>
            </g>
            <g transform="matrix(-1.79484,-1.41846,1.41846,-1.79484,3734.27,6434.29)">
                <path d="M1064.39,519.685C413.462,687.364 286.295,1823.02 1062.99,2031.5" style="fill:none;"/>
            </g>
        </g>
    </g>
</svg>
