<?xml version="1.0" encoding="UTF-8" standalone="no"?>
<!DOCTYPE svg PUBLIC "-//W3C//DTD SVG 1.1//EN" "http://www.w3.org/Graphics/SVG/1.1/DTD/svg11.dtd">
<svg width="100%" height="100%" viewBox="0 0 271 31" version="1.1" xmlns="http://www.w3.org/2000/svg" xmlns:xlink="http://www.w3.org/1999/xlink" xml:space="preserve" xmlns:serif="http://www.serif.com/" style="fill-rule:evenodd;clip-rule:evenodd;stroke-linecap:round;stroke-miterlimit:10;">
    <g transform="matrix(1,0,0,1,-47.8291,-214.286)">
        <g transform="matrix(17.49,0,-10.0979,17.49,48.394,230.228)">
            <path d="M0.206,-0L0.392,-0L0.392,-0.283L0.604,-0.74L0.422,-0.74L0.305,-0.451L0.303,-0.451L0.186,-0.74L-0.004,-0.74L0.206,-0.283L0.206,-0Z" style="fill-rule:nonzero;"/>
        </g>
        <g transform="matrix(17.49,0,-10.0979,17.49,57.139,230.228)">
            <path d="M0.266,0.011C0.389,0.011 0.514,-0.061 0.514,-0.267C0.514,-0.476 0.389,-0.546 0.266,-0.546C0.142,-0.546 0.018,-0.476 0.018,-0.267C0.018,-0.061 0.143,0.011 0.266,0.011ZM0.266,-0.125C0.214,-0.125 0.199,-0.173 0.199,-0.267C0.199,-0.367 0.217,-0.405 0.266,-0.405C0.318,-0.405 0.333,-0.36 0.333,-0.267C0.333,-0.165 0.316,-0.125 0.266,-0.125Z" style="fill-rule:nonzero;"/>
        </g>
        <g transform="matrix(17.49,0,-10.0979,17.49,66.4612,230.228)">
            <path d="M0.168,0.011C0.246,0.011 0.3,-0.037 0.323,-0.072L0.323,-0L0.504,-0L0.504,-0.535L0.323,-0.535L0.323,-0.171C0.305,-0.155 0.28,-0.137 0.254,-0.137C0.229,-0.137 0.22,-0.153 0.22,-0.183L0.22,-0.535L0.039,-0.535L0.039,-0.127C0.039,-0.021 0.095,0.011 0.168,0.011Z" style="fill-rule:nonzero;"/>
        </g>
        <g transform="matrix(30,0,0,30,80.1559,240.218)">
            <path d="M0.069,-0L0.58,-0L0.58,-0.161L0.269,-0.161L0.269,-0.74L0.069,-0.74L0.069,-0Z" style="fill:rgb(0,119,223);fill-rule:nonzero;"/>
        </g>
        <g transform="matrix(30,0,0,30,98.0059,240.218)">
            <path d="M0.059,-0.588L0.257,-0.588L0.257,-0.74L0.059,-0.74L0.059,-0.588ZM0.059,-0L0.257,-0L0.257,-0.536L0.059,-0.536L0.059,-0Z" style="fill:rgb(0,119,223);fill-rule:nonzero;"/>
        </g>
        <g transform="matrix(30,0,0,30,107.486,240.218)">
            <path d="M0.055,-0L0.253,-0L0.253,-0.346C0.279,-0.367 0.308,-0.384 0.342,-0.384C0.375,-0.384 0.387,-0.363 0.387,-0.326L0.387,-0L0.585,-0L0.585,-0.391C0.585,-0.506 0.515,-0.546 0.431,-0.546C0.332,-0.546 0.276,-0.49 0.253,-0.453L0.253,-0.536L0.055,-0.536L0.055,-0Z" style="fill:rgb(0,119,223);fill-rule:nonzero;"/>
        </g>
        <g transform="matrix(30,0,0,30,126.476,240.218)">
            <path d="M0.054,-0L0.252,-0L0.252,-0.135L0.297,-0.188L0.396,-0L0.599,-0L0.419,-0.332L0.593,-0.536L0.383,-0.536L0.252,-0.369L0.252,-0.74L0.054,-0.74L0.054,-0Z" style="fill:rgb(0,119,223);fill-rule:nonzero;"/>
        </g>
        <g transform="matrix(17.49,0,-10.0979,17.49,144.716,230.228)">
            <path d="M0.211,-0L0.381,-0L0.493,-0.463L0.495,-0.463L0.596,-0L0.763,-0L0.955,-0.74L0.772,-0.74L0.713,-0.445C0.701,-0.387 0.694,-0.367 0.685,-0.296L0.683,-0.296C0.672,-0.367 0.664,-0.391 0.65,-0.447L0.584,-0.74L0.403,-0.74L0.342,-0.448C0.331,-0.4 0.321,-0.362 0.312,-0.296L0.31,-0.296C0.3,-0.364 0.29,-0.401 0.278,-0.449L0.215,-0.74L0.014,-0.74L0.211,-0Z" style="fill-rule:nonzero;"/>
        </g>
        <g transform="matrix(17.49,0,-10.0979,17.49,159.564,230.228)">
            <path d="M0.314,0.011C0.403,0.011 0.486,-0.009 0.554,-0.053L0.483,-0.173C0.448,-0.152 0.385,-0.124 0.329,-0.124C0.271,-0.124 0.232,-0.141 0.222,-0.211L0.565,-0.211L0.565,-0.241C0.565,-0.508 0.413,-0.546 0.307,-0.546C0.198,-0.546 0.025,-0.482 0.025,-0.267C0.025,-0.05 0.167,0.011 0.314,0.011ZM0.224,-0.324C0.236,-0.385 0.267,-0.408 0.306,-0.408C0.353,-0.408 0.382,-0.388 0.39,-0.324L0.224,-0.324Z" style="fill-rule:nonzero;"/>
        </g>
        <g transform="matrix(30,0,0,30,169.865,240.218)">
            <path d="M0.01,-0L0.192,-0L0.24,-0.138L0.473,-0.138L0.518,-0L0.72,-0L0.458,-0.743L0.272,-0.743L0.01,-0ZM0.287,-0.28L0.358,-0.485L0.36,-0.485L0.428,-0.28L0.287,-0.28Z" style="fill:rgb(236,0,47);fill-rule:nonzero;"/>
        </g>
        <g transform="matrix(30,0,0,30,191.765,240.218)">
            <path d="M0.055,-0L0.253,-0L0.253,-0.346C0.279,-0.367 0.308,-0.384 0.342,-0.384C0.375,-0.384 0.387,-0.363 0.387,-0.326L0.387,-0L0.585,-0L0.585,-0.391C0.585,-0.506 0.515,-0.546 0.431,-0.546C0.332,-0.546 0.276,-0.49 0.253,-0.453L0.253,-0.536L0.055,-0.536L0.055,-0Z" style="fill:rgb(236,0,47);fill-rule:nonzero;"/>
        </g>
        <g transform="matrix(30,0,0,30,210.755,240.218)">
            <path d="M0.055,-0L0.253,-0L0.253,-0.346C0.279,-0.367 0.308,-0.384 0.342,-0.384C0.375,-0.384 0.387,-0.363 0.387,-0.326L0.387,-0L0.585,-0L0.585,-0.391C0.585,-0.506 0.515,-0.546 0.431,-0.546C0.332,-0.546 0.276,-0.49 0.253,-0.453L0.253,-0.536L0.055,-0.536L0.055,-0Z" style="fill:rgb(236,0,47);fill-rule:nonzero;"/>
        </g>
        <g transform="matrix(30,0,0,30,229.745,240.218)">
            <path d="M0.311,0.011C0.44,0.011 0.597,-0.047 0.597,-0.267C0.597,-0.49 0.44,-0.546 0.311,-0.546C0.181,-0.546 0.025,-0.49 0.025,-0.267C0.025,-0.047 0.182,0.011 0.311,0.011ZM0.311,-0.126C0.242,-0.126 0.223,-0.188 0.223,-0.266C0.223,-0.35 0.246,-0.404 0.311,-0.404C0.379,-0.404 0.399,-0.344 0.399,-0.266C0.399,-0.181 0.376,-0.126 0.311,-0.126Z" style="fill:rgb(236,0,47);fill-rule:nonzero;"/>
        </g>
        <g transform="matrix(30,0,0,30,248.405,240.218)">
            <path d="M0.298,0.007C0.337,0.007 0.409,0.001 0.419,-0.002L0.419,-0.14C0.41,-0.137 0.384,-0.134 0.367,-0.134C0.311,-0.134 0.297,-0.148 0.297,-0.205L0.297,-0.394L0.434,-0.394L0.434,-0.536L0.297,-0.536L0.297,-0.716L0.099,-0.716L0.099,-0.536L0.012,-0.536L0.012,-0.394L0.099,-0.394L0.099,-0.161C0.099,-0.057 0.116,0.007 0.298,0.007Z" style="fill:rgb(236,0,47);fill-rule:nonzero;"/>
        </g>
        <g transform="matrix(30,0,0,30,261.965,240.218)">
            <path d="M0.17,0.008C0.249,0.008 0.304,-0.023 0.348,-0.078C0.348,-0.048 0.353,-0.022 0.36,-0L0.556,-0C0.545,-0.027 0.541,-0.066 0.541,-0.13L0.541,-0.321C0.541,-0.472 0.478,-0.546 0.32,-0.546C0.176,-0.546 0.092,-0.497 0.043,-0.453L0.124,-0.341C0.169,-0.373 0.227,-0.399 0.289,-0.399C0.335,-0.399 0.348,-0.38 0.348,-0.354L0.348,-0.347C0.128,-0.337 0.017,-0.264 0.017,-0.144C0.017,-0.039 0.093,0.008 0.17,0.008ZM0.254,-0.139C0.229,-0.139 0.21,-0.151 0.21,-0.177C0.21,-0.218 0.252,-0.243 0.348,-0.246L0.348,-0.17C0.331,-0.154 0.303,-0.139 0.254,-0.139Z" style="fill:rgb(236,0,47);fill-rule:nonzero;"/>
        </g>
        <g transform="matrix(30,0,0,30,279.635,240.218)">
            <path d="M0.298,0.007C0.337,0.007 0.409,0.001 0.419,-0.002L0.419,-0.14C0.41,-0.137 0.384,-0.134 0.367,-0.134C0.311,-0.134 0.297,-0.148 0.297,-0.205L0.297,-0.394L0.434,-0.394L0.434,-0.536L0.297,-0.536L0.297,-0.716L0.099,-0.716L0.099,-0.536L0.012,-0.536L0.012,-0.394L0.099,-0.394L0.099,-0.161C0.099,-0.057 0.116,0.007 0.298,0.007Z" style="fill:rgb(236,0,47);fill-rule:nonzero;"/>
        </g>
        <g transform="matrix(30,0,0,30,293.195,240.218)">
            <path d="M0.314,0.011C0.403,0.011 0.486,-0.009 0.554,-0.053L0.483,-0.173C0.448,-0.152 0.385,-0.124 0.329,-0.124C0.271,-0.124 0.232,-0.141 0.222,-0.211L0.565,-0.211L0.565,-0.241C0.565,-0.508 0.413,-0.546 0.307,-0.546C0.198,-0.546 0.025,-0.482 0.025,-0.267C0.025,-0.05 0.167,0.011 0.314,0.011ZM0.224,-0.324C0.236,-0.385 0.267,-0.408 0.306,-0.408C0.353,-0.408 0.382,-0.388 0.39,-0.324L0.224,-0.324Z" style="fill:rgb(236,0,47);fill-rule:nonzero;"/>
        </g>
    </g>
    <g transform="matrix(1.09603,-0.0134726,0.0147678,0.999909,-54.6037,-339.977)">
        <g transform="matrix(0.912216,0.0122911,-0.0134726,0.999909,45.23,340.617)">
            <path d="M26.474,18.188L30.224,21.938L26.474,25.688" style="fill:none;stroke:black;stroke-width:2.5px;"/>
            <path d="M3.792,21.938L30.224,21.938" style="fill:none;stroke:black;stroke-width:2.5px;stroke-linejoin:round;stroke-miterlimit:1.5;"/>
        </g>
    </g>
    <g transform="matrix(0.884535,-0.0134726,0.0119181,0.999909,52.7937,-339.977)">
        <g transform="matrix(1.13033,0.0152299,-0.0134726,0.999909,-64.2549,339.142)">
            <path d="M117.161,18.188L120.911,21.938L117.161,25.688" style="fill:none;stroke:black;stroke-width:2.5px;"/>
            <path d="M99.921,21.938L120.911,21.938" style="fill:none;stroke:black;stroke-width:2.5px;stroke-linejoin:round;stroke-miterlimit:1.5;"/>
        </g>
    </g>
</svg>
